<svg width="154" height="40" viewBox="0 0 154 40" fill="none" xmlns="http://www.w3.org/2000/svg">
<g id="Group 427321847">
<g id="Group 427321846">
<g id="Group">
<g id="Group_2">
<g id="Vector">
<path d="M24.3594 18.5868C24.3187 14.1713 28.0675 12.0231 28.239 11.9231C26.1158 8.90499 22.825 8.49262 21.6686 8.45974C18.9047 8.17615 16.2237 10.0722 14.8158 10.0722C13.3798 10.0722 11.2116 8.48714 8.87492 8.53372C5.86794 8.57893 3.05488 10.2764 1.51205 12.9122C-1.67197 18.2867 0.702698 26.1848 3.75323 30.529C5.2792 32.6567 7.0623 35.0322 9.39622 34.9487C11.6796 34.8569 12.5325 33.5293 15.2879 33.5293C18.0181 33.5293 18.819 34.9487 21.1993 34.8952C23.6498 34.8569 25.1927 32.758 26.6652 30.6112C28.4287 28.1727 29.1368 25.771 29.165 25.6477C29.1073 25.6286 24.4058 23.8791 24.3594 18.5868Z" fill="white"/>
<path d="M19.863 5.60192C21.0911 4.10452 21.9314 2.06733 21.6981 0C19.9206 0.0767199 17.6977 1.19875 16.4176 2.66328C15.2851 3.95382 14.2734 6.06909 14.5348 8.05833C16.5315 8.20355 18.5815 7.07604 19.863 5.60192Z" fill="white"/>
</g>
</g>
</g>
<g id="Group_3">
<path id="Vector_2" d="M57.4018 34.6421H54.2108L52.4628 29.2868H46.387L44.722 34.6421H41.6152L47.6348 16.4102H51.3528L57.4018 34.6421ZM51.9359 27.04L50.3551 22.2792C50.1879 21.7929 49.8746 20.6476 49.4123 18.8446H49.3561C49.172 19.6201 48.8755 20.7654 48.468 22.2792L46.9154 27.04H51.9359Z" fill="white"/>
<path id="Vector_3" d="M72.8813 27.908C72.8813 30.1439 72.2616 31.9112 71.0223 33.2086C69.9122 34.3635 68.5338 34.9403 66.8884 34.9403C65.1123 34.9403 63.8365 34.3183 63.0594 33.0743H63.0032V39.9997H60.0075V25.8243C60.0075 24.4187 59.9696 22.9761 59.8965 21.4965H62.5311L62.6983 23.5802H62.7545C63.7536 22.0102 65.2697 21.2266 67.3043 21.2266C68.8949 21.2266 70.2228 21.839 71.285 23.0651C72.3501 24.2926 72.8813 25.9065 72.8813 27.908ZM69.8293 28.0149C69.8293 26.7353 69.5343 25.6804 68.9413 24.8502C68.2935 23.9844 67.4237 23.5515 66.3334 23.5515C65.5943 23.5515 64.9226 23.7926 64.3226 24.268C63.7212 24.7475 63.3278 25.3735 63.1437 26.149C63.051 26.5106 63.0046 26.8066 63.0046 27.0395V29.2315C63.0046 30.1877 63.3053 30.9947 63.9067 31.6536C64.5081 32.3126 65.2894 32.6414 66.2505 32.6414C67.3788 32.6414 68.257 32.2167 68.8851 31.37C69.5146 30.522 69.8293 29.4041 69.8293 28.0149Z" fill="white"/>
<path id="Vector_4" d="M88.3896 27.908C88.3896 30.1439 87.77 31.9112 86.5292 33.2086C85.4206 34.3635 84.0422 34.9403 82.3968 34.9403C80.6207 34.9403 79.3448 34.3183 78.5692 33.0743H78.513V39.9997H75.5173V25.8243C75.5173 24.4187 75.4793 22.9761 75.4062 21.4965H78.0409L78.2081 23.5802H78.2643C79.2619 22.0102 80.7781 21.2266 82.8141 21.2266C84.4033 21.2266 85.7311 21.839 86.7962 23.0651C87.8571 24.2926 88.3896 25.9065 88.3896 27.908ZM85.3377 28.0149C85.3377 26.7353 85.0412 25.6804 84.4482 24.8502C83.8005 23.9844 82.9335 23.5515 81.8417 23.5515C81.1012 23.5515 80.431 23.7926 79.8296 24.268C79.2282 24.7475 78.8362 25.3735 78.6521 26.149C78.5608 26.5106 78.513 26.8066 78.513 27.0395V29.2315C78.513 30.1877 78.8137 30.9947 79.4123 31.6536C80.0137 32.3112 80.7949 32.6414 81.7588 32.6414C82.8872 32.6414 83.7654 32.2167 84.3934 31.37C85.0229 30.522 85.3377 29.4041 85.3377 28.0149Z" fill="white"/>
<path id="Vector_5" d="M105.73 29.5308C105.73 31.0816 105.177 32.3434 104.069 33.3175C102.851 34.382 101.155 34.9135 98.9752 34.9135C96.9631 34.9135 95.35 34.5354 94.1289 33.7778L94.823 31.3433C96.1382 32.1187 97.5813 32.5078 99.1536 32.5078C100.282 32.5078 101.16 32.2585 101.791 31.7625C102.419 31.2666 102.732 30.6008 102.732 29.7705C102.732 29.0307 102.474 28.4074 101.955 27.9019C101.44 27.3963 100.578 26.9264 99.3757 26.4921C96.1017 25.3016 94.4661 23.5576 94.4661 21.2642C94.4661 19.7654 95.0394 18.5366 96.1874 17.5803C97.3312 16.6227 98.8572 16.1445 100.765 16.1445C102.467 16.1445 103.88 16.4336 105.009 17.0104L104.26 19.3914C103.206 18.8325 102.014 18.553 100.681 18.553C99.6272 18.553 98.8038 18.8064 98.2136 19.3106C97.7148 19.7613 97.4647 20.3107 97.4647 20.9614C97.4647 21.6821 97.7499 22.278 98.3232 22.7466C98.822 23.1795 99.7283 23.648 101.044 24.1535C102.652 24.7851 103.834 25.5235 104.594 26.3702C105.352 27.2141 105.73 28.2704 105.73 29.5308Z" fill="white"/>
<path id="Vector_6" d="M115.635 23.6903H112.333V30.0731C112.333 31.6966 112.915 32.5076 114.081 32.5076C114.617 32.5076 115.061 32.4624 115.412 32.372L115.495 34.59C114.905 34.8051 114.128 34.9134 113.165 34.9134C111.982 34.9134 111.057 34.5613 110.39 33.8585C109.725 33.1543 109.391 31.9733 109.391 30.3143V23.6876H107.424V21.4956H109.391V19.0885L112.333 18.2227V21.4956H115.635V23.6903Z" fill="white"/>
<path id="Vector_7" d="M130.533 27.9601C130.533 29.9809 129.94 31.6399 128.757 32.9373C127.516 34.2731 125.869 34.9389 123.816 34.9389C121.838 34.9389 120.263 34.2991 119.088 33.0195C117.914 31.7399 117.326 30.1247 117.326 28.1779C117.326 26.1407 117.93 24.4721 119.143 23.1747C120.353 21.8759 121.986 21.2266 124.038 21.2266C126.017 21.2266 127.609 21.8664 128.81 23.1473C129.96 24.3899 130.533 25.9942 130.533 27.9601ZM127.425 28.0546C127.425 26.8422 127.159 25.8024 126.621 24.9351C125.993 23.8857 125.095 23.3624 123.932 23.3624C122.727 23.3624 121.813 23.8871 121.185 24.9351C120.646 25.8037 120.381 26.86 120.381 28.1094C120.381 29.3219 120.646 30.3617 121.185 31.2276C121.832 32.277 122.737 32.8003 123.905 32.8003C125.049 32.8003 125.947 32.266 126.594 31.2002C127.147 30.3165 127.425 29.2657 127.425 28.0546Z" fill="white"/>
<path id="Vector_8" d="M140.271 24.0652C139.974 24.0118 139.658 23.9844 139.326 23.9844C138.272 23.9844 137.458 24.3721 136.884 25.1489C136.385 25.8339 136.135 26.6997 136.135 27.745V34.643H133.141L133.169 25.6366C133.169 24.1214 133.131 22.7418 133.057 21.4978H135.666L135.776 24.0131H135.858C136.175 23.1487 136.673 22.4527 137.356 21.9307C138.024 21.4608 138.745 21.2266 139.522 21.2266C139.798 21.2266 140.049 21.2457 140.271 21.28V24.0652Z" fill="white"/>
<path id="Vector_9" d="M153.668 27.4489C153.668 27.9723 153.633 28.4134 153.559 28.7737H144.572C144.607 30.0725 145.041 31.0657 145.876 31.7507C146.633 32.3631 147.612 32.67 148.815 32.67C150.146 32.67 151.36 32.4631 152.452 32.048L152.921 34.0756C151.645 34.6182 150.139 34.888 148.401 34.888C146.31 34.888 144.669 34.288 143.474 33.0892C142.283 31.8905 141.686 30.2807 141.686 28.2614C141.686 26.279 142.241 24.6281 143.352 23.3116C144.515 21.9059 146.088 21.2031 148.066 21.2031C150.01 21.2031 151.481 21.9059 152.48 23.3116C153.271 24.4281 153.668 25.8091 153.668 27.4489ZM150.812 26.6913C150.832 25.8255 150.636 25.0775 150.23 24.4459C149.712 23.6335 148.915 23.228 147.843 23.228C146.863 23.228 146.067 23.6239 145.458 24.4185C144.959 25.0501 144.663 25.8077 144.572 26.69H150.812V26.6913Z" fill="white"/>
</g>
<g id="Group_4">
<g id="Group_5">
<path id="Vector_10" d="M50.9476 5.19659C50.9476 6.80908 50.4516 8.0229 49.461 8.83805C48.5435 9.59017 47.2395 9.96692 45.5505 9.96692C44.7131 9.96692 43.9965 9.9313 43.3965 9.86006V1.0496C44.1791 0.926301 45.0222 0.863281 45.9327 0.863281C47.5416 0.863281 48.7542 1.20441 49.572 1.88667C50.4882 2.65798 50.9476 3.76083 50.9476 5.19659ZM49.395 5.23632C49.395 4.19101 49.1111 3.38956 48.5435 2.8306C47.9758 2.27301 47.1468 1.99353 46.055 1.99353C45.5913 1.99353 45.1965 2.02367 44.8691 2.08669V8.78462C45.0503 8.81202 45.3819 8.82435 45.8639 8.82435C46.9908 8.82435 47.8606 8.51884 48.4732 7.90782C49.0859 7.2968 49.395 6.4063 49.395 5.23632Z" fill="white"/>
<path id="Vector_11" d="M59.1808 6.60405C59.1808 7.5973 58.89 8.41108 58.3082 9.0495C57.6984 9.70573 56.8905 10.0332 55.8816 10.0332C54.9092 10.0332 54.135 9.71943 53.5575 9.08923C52.9814 8.4604 52.6934 7.66717 52.6934 6.71091C52.6934 5.71081 52.9898 4.89018 53.5856 4.25313C54.1814 3.61608 54.9823 3.29688 55.9912 3.29688C56.9635 3.29688 57.7448 3.6106 58.3364 4.23943C58.8984 4.85045 59.1808 5.63957 59.1808 6.60405ZM57.6535 6.65063C57.6535 6.05468 57.5214 5.54367 57.2586 5.1176C56.9495 4.60248 56.5097 4.34492 55.9378 4.34492C55.3462 4.34492 54.8966 4.60248 54.5875 5.1176C54.3233 5.54367 54.1926 6.0629 54.1926 6.67666C54.1926 7.27261 54.3247 7.78362 54.5875 8.20969C54.9064 8.72481 55.3505 8.98237 55.9237 8.98237C56.4858 8.98237 56.927 8.7207 57.2446 8.19599C57.5172 7.7617 57.6535 7.24658 57.6535 6.65063Z" fill="white"/>
<path id="Vector_12" d="M70.2201 3.42969L68.1475 9.88786H66.7986L65.94 7.08347C65.7223 6.3834 65.5452 5.68745 65.4075 4.99697H65.3808C65.2529 5.70663 65.0759 6.40121 64.8483 7.08347L63.9363 9.88786H62.572L60.623 3.42969H62.1364L62.8853 6.49986C63.0666 7.22595 63.2155 7.9178 63.3349 8.57266H63.3616C63.4712 8.03288 63.6525 7.34514 63.9082 6.51356L64.8483 3.43106H66.0482L66.9489 6.44779C67.1667 7.18348 67.3438 7.89177 67.4801 8.57403H67.5208C67.6206 7.90958 67.7709 7.20129 67.9705 6.44779L68.7742 3.43106H70.2201V3.42969Z" fill="white"/>
<path id="Vector_13" d="M77.8548 9.88678H76.3822V6.18778C76.3822 5.04794 75.9382 4.47802 75.0474 4.47802C74.6104 4.47802 74.2577 4.6342 73.9837 4.94793C73.7125 5.26166 73.5748 5.63156 73.5748 6.05489V9.88541H72.1022V5.27399C72.1022 4.70681 72.084 4.09168 72.0488 3.42586H73.3429L73.4118 4.43555H73.4525C73.624 4.12182 73.8797 3.86289 74.2155 3.65602C74.6146 3.4149 75.0614 3.29297 75.5504 3.29297C76.1686 3.29297 76.6829 3.48751 77.0918 3.87796C77.6005 4.35609 77.8548 5.06986 77.8548 6.0179V9.88678Z" fill="white"/>
<path id="Vector_14" d="M81.9145 9.88632H80.4434V0.464844H81.9145V9.88632Z" fill="white"/>
<path id="Vector_15" d="M90.5832 6.60405C90.5832 7.5973 90.2923 8.41108 89.7106 9.0495C89.1008 9.70573 88.2914 10.0332 87.2839 10.0332C86.3102 10.0332 85.536 9.71943 84.9599 9.08923C84.3838 8.4604 84.0957 7.66717 84.0957 6.71091C84.0957 5.71081 84.3922 4.89018 84.988 4.25313C85.5837 3.61608 86.3847 3.29688 87.3921 3.29688C88.3659 3.29688 89.1457 3.6106 89.7387 4.23943C90.3007 4.85045 90.5832 5.63957 90.5832 6.60405ZM89.0544 6.65063C89.0544 6.05468 88.9223 5.54367 88.6596 5.1176C88.3518 4.60248 87.9106 4.34492 87.3401 4.34492C86.7472 4.34492 86.2975 4.60248 85.9898 5.1176C85.7256 5.54367 85.595 6.0629 85.595 6.67666C85.595 7.27261 85.7271 7.78362 85.9898 8.20969C86.3088 8.72481 86.7528 8.98237 87.3261 8.98237C87.8881 8.98237 88.3279 8.7207 88.6455 8.19599C88.9195 7.7617 89.0544 7.24658 89.0544 6.65063Z" fill="white"/>
<path id="Vector_16" d="M97.7113 9.88657H96.3891L96.2794 9.14266H96.2387C95.7862 9.73587 95.1413 10.0332 94.3038 10.0332C93.6786 10.0332 93.1727 9.83725 92.7919 9.44817C92.4463 9.09471 92.2734 8.65494 92.2734 8.13297C92.2734 7.34385 92.6107 6.74242 93.2893 6.32594C93.9666 5.90946 94.9193 5.70533 96.146 5.71492V5.59436C96.146 4.74359 95.6879 4.31889 94.7703 4.31889C94.117 4.31889 93.5409 4.47918 93.0435 4.79702L92.7442 3.85446C93.3596 3.48319 94.1198 3.29688 95.0162 3.29688C96.7474 3.29688 97.6157 4.18737 97.6157 5.96837V8.34669C97.6157 8.99196 97.648 9.50571 97.7113 9.88657ZM96.1825 7.66717V6.67118C94.5582 6.64378 93.746 7.07807 93.746 7.97268C93.746 8.3097 93.8387 8.56178 94.0284 8.73029C94.2181 8.8988 94.4598 8.98237 94.7479 8.98237C95.071 8.98237 95.3731 8.88236 95.6485 8.68371C95.9254 8.48369 96.0954 8.23024 96.1586 7.91925C96.1741 7.84938 96.1825 7.76444 96.1825 7.66717Z" fill="white"/>
<path id="Vector_17" d="M106.077 9.88632H104.77L104.701 8.84924H104.661C104.243 9.63836 103.532 10.0329 102.533 10.0329C101.735 10.0329 101.071 9.72741 100.544 9.11639C100.017 8.50537 99.7539 7.71214 99.7539 6.73807C99.7539 5.69276 100.039 4.8461 100.612 4.19946C101.167 3.59666 101.848 3.29526 102.657 3.29526C103.546 3.29526 104.169 3.58707 104.523 4.17206H104.551V0.464844H106.025V8.14643C106.025 8.77526 106.042 9.35476 106.077 9.88632ZM104.551 7.16277V6.08595C104.551 5.89963 104.537 5.74893 104.51 5.63385C104.427 5.28861 104.249 4.99817 103.978 4.7639C103.704 4.52963 103.373 4.41181 102.993 4.41181C102.443 4.41181 102.013 4.62416 101.697 5.05023C101.384 5.4763 101.225 6.02019 101.225 6.68464C101.225 7.32306 101.375 7.84092 101.678 8.23959C101.996 8.66429 102.426 8.87664 102.965 8.87664C103.448 8.87664 103.834 8.69991 104.128 8.34508C104.412 8.01765 104.551 7.62309 104.551 7.16277Z" fill="white"/>
<path id="Vector_18" d="M118.673 6.60405C118.673 7.5973 118.382 8.41108 117.8 9.0495C117.191 9.70573 116.384 10.0332 115.374 10.0332C114.403 10.0332 113.629 9.71943 113.05 9.08923C112.474 8.4604 112.186 7.66717 112.186 6.71091C112.186 5.71081 112.482 4.89018 113.078 4.25313C113.674 3.61608 114.474 3.29688 115.485 3.29688C116.456 3.29688 117.238 3.6106 117.829 4.23943C118.391 4.85045 118.673 5.63957 118.673 6.60405ZM117.147 6.65063C117.147 6.05468 117.015 5.54367 116.752 5.1176C116.442 4.60248 116.003 4.34492 115.43 4.34492C114.84 4.34492 114.39 4.60248 114.08 5.1176C113.815 5.54367 113.685 6.0629 113.685 6.67666C113.685 7.27261 113.817 7.78362 114.08 8.20969C114.399 8.72481 114.843 8.98237 115.416 8.98237C115.978 8.98237 116.421 8.7207 116.738 8.19599C117.009 7.7617 117.147 7.24658 117.147 6.65063Z" fill="white"/>
<path id="Vector_19" d="M126.592 9.88678H125.121V6.18778C125.121 5.04794 124.676 4.47802 123.784 4.47802C123.347 4.47802 122.995 4.6342 122.722 4.94793C122.449 5.26166 122.313 5.63156 122.313 6.05489V9.88541H120.839V5.27399C120.839 4.70681 120.822 4.09168 120.787 3.42586H122.08L122.149 4.43555H122.189C122.362 4.12182 122.618 3.86289 122.952 3.65602C123.353 3.4149 123.798 3.29297 124.289 3.29297C124.906 3.29297 125.42 3.48751 125.829 3.87796C126.339 4.35609 126.592 5.06986 126.592 6.0179V9.88678Z" fill="white"/>
<path id="Vector_20" d="M136.501 4.50414H134.879V7.64144C134.879 8.43878 135.167 8.83745 135.738 8.83745C136.002 8.83745 136.221 8.81553 136.394 8.77032L136.432 9.85946C136.141 9.96632 135.759 10.0198 135.288 10.0198C134.707 10.0198 134.254 9.84714 133.927 9.5019C133.598 9.15666 133.435 8.57578 133.435 7.76063V4.50414H132.467V3.42869H133.435V2.24501L134.878 1.82031V3.42732H136.499V4.50414H136.501Z" fill="white"/>
<path id="Vector_21" d="M144.296 9.88632H142.822V6.21473C142.822 5.05708 142.378 4.47757 141.488 4.47757C140.805 4.47757 140.339 4.81322 140.083 5.48452C140.039 5.62563 140.014 5.79825 140.014 6.00101V9.88496H138.543V0.464844H140.014V4.35701H140.042C140.506 3.64872 141.171 3.29526 142.032 3.29526C142.642 3.29526 143.146 3.4898 143.547 3.88025C144.045 4.3666 144.296 5.08996 144.296 6.04622V9.88632Z" fill="white"/>
<path id="Vector_22" d="M152.338 6.35258C152.338 6.61014 152.318 6.8266 152.283 7.00333H147.867C147.887 7.64175 148.097 8.1281 148.506 8.46512C148.88 8.76652 149.362 8.91722 149.952 8.91722C150.606 8.91722 151.201 8.81584 151.738 8.61171L151.969 9.60907C151.34 9.87485 150.601 10.0077 149.746 10.0077C148.72 10.0077 147.912 9.71319 147.327 9.12409C146.74 8.53499 146.449 7.7445 146.449 6.75262C146.449 5.77855 146.72 4.96751 147.267 4.32087C147.837 3.6304 148.609 3.28516 149.583 3.28516C150.535 3.28516 151.259 3.6304 151.748 4.32087C152.143 4.86887 152.338 5.54702 152.338 6.35258ZM150.933 5.98131C150.944 5.55524 150.847 5.18808 150.648 4.87846C150.392 4.4798 150.003 4.27978 149.476 4.27978C148.995 4.27978 148.603 4.47431 148.304 4.86476C148.059 5.17575 147.915 5.54702 147.867 5.98131H150.933Z" fill="white"/>
</g>
</g>
</g>
</g>
</svg>
