<svg width="77" height="80" viewBox="0 0 77 80" fill="none" xmlns="http://www.w3.org/2000/svg">
<g id="Icon">
<path id="Subtract" fill-rule="evenodd" clip-rule="evenodd" d="M42.6955 3.01789C40.7252 -0.0267984 36.2704 -0.0267957 34.3001 3.01789L31.2843 7.67817C29.9984 9.66519 27.4955 10.4784 25.2873 9.62671L20.1082 7.62913C16.7245 6.32406 13.1206 8.9425 13.3161 12.5638L13.6155 18.1067C13.7432 20.4701 12.1963 22.5992 9.90918 23.2081L4.54504 24.6362C1.04051 25.5693 -0.336084 29.806 1.95072 32.6207L5.45097 36.9291C6.94338 38.766 6.94338 41.3977 5.45097 43.2347L1.95072 47.543C-0.336086 50.3578 1.04051 54.5945 4.54505 55.5275L9.90918 56.9557C12.1963 57.5646 13.7432 59.6937 13.6155 62.057L13.3161 67.5999C13.1206 71.2212 16.7245 73.8397 20.1082 72.5346L25.2873 70.537C27.4955 69.6853 29.9984 70.4986 31.2843 72.4856L34.3001 77.1459C36.2704 80.1905 40.7252 80.1905 42.6955 77.1459L45.7114 72.4856C46.9972 70.4986 49.5001 69.6853 51.7084 70.537L56.8875 72.5346C60.2711 73.8397 63.8751 71.2212 63.6795 67.5999L63.3801 62.057C63.2525 59.6937 64.7993 57.5646 67.0865 56.9557L72.4506 55.5275C75.9551 54.5945 77.3317 50.3578 75.0449 47.543L71.5447 43.2347C70.0523 41.3977 70.0523 38.766 71.5447 36.9291L75.0449 32.6207C77.3317 29.806 75.9551 25.5693 72.4506 24.6362L67.0865 23.2081C64.7993 22.5992 63.2525 20.4701 63.3801 18.1067L63.6795 12.5638C63.8751 8.9425 60.2711 6.32405 56.8875 7.62913L51.7084 9.62671C49.5001 10.4784 46.9972 9.66519 45.7114 7.67817L42.6955 3.01789ZM53.3337 33.1389C54.31 32.1625 54.31 30.5796 53.3337 29.6033C52.3573 28.627 50.7744 28.627 49.7981 29.6033L34.1457 45.2558L27.2033 38.3134C26.227 37.3371 24.6441 37.3371 23.6678 38.3134C22.6915 39.2898 22.6915 40.8727 23.6678 41.849L32.0243 50.2055C33.1959 51.3771 35.0954 51.3771 36.267 50.2055L53.3337 33.1389Z" fill="#4D70EE"/>
</g>
</svg>
