<svg width="22" height="20" viewBox="0 0 22 20" fill="none" xmlns="http://www.w3.org/2000/svg">
<g id="close/small">
<path id="Union" fill-rule="evenodd" clip-rule="evenodd" d="M20.9146 2.63636C21.3327 2.2755 21.3791 1.64404 21.0182 1.22595C20.6574 0.807863 20.0259 0.761474 19.6078 1.12234L11.0419 8.5158L2.4756 1.12191C2.05751 0.761047 1.42605 0.807434 1.06518 1.22552C0.704319 1.64361 0.750708 2.27507 1.16879 2.63593L9.51143 9.83673L1.16879 17.0375C0.750707 17.3984 0.704318 18.0299 1.06518 18.4479C1.42605 18.866 2.05751 18.9124 2.47559 18.5516L11.0415 11.1581L19.6078 18.552C20.0259 18.9128 20.6574 18.8665 21.0182 18.4484C21.3791 18.0303 21.3327 17.3988 20.9146 17.038L12.572 9.83716L20.9146 2.63636Z" fill="#26263C"/>
</g>
</svg>
