<svg width="175" height="40" viewBox="0 0 175 40" fill="none" xmlns="http://www.w3.org/2000/svg">
<g id="Group 427321845">
<g id="g18">
<path id="path20" d="M56.3757 4.96647C56.3757 6.19385 55.9993 7.17686 55.2578 7.90997C54.4053 8.77906 53.295 9.21636 51.9344 9.21636C50.634 9.21636 49.5236 8.77171 48.6128 7.89527C47.7 7.00598 47.2446 5.91457 47.2446 4.60818C47.2446 3.30179 47.7 2.21038 48.6128 1.32844C49.5236 0.44465 50.634 0 51.9344 0C52.5817 0 53.199 0.130455 53.788 0.372991C54.3752 0.617364 54.8532 0.948094 55.1995 1.356L54.4128 2.13138C53.8087 1.435 52.9864 1.09141 51.9344 1.09141C50.9859 1.09141 50.1635 1.41479 49.4653 2.06707C48.7746 2.72118 48.4283 3.56822 48.4283 4.60818C48.4283 5.64814 48.7746 6.50253 49.4653 7.15664C50.1635 7.80157 50.9859 8.1323 51.9344 8.1323C52.9412 8.1323 53.788 7.80157 54.4561 7.14929C54.8965 6.7175 55.1468 6.12219 55.2127 5.36151H51.9344V4.2995H56.3079C56.3606 4.52917 56.3757 4.7515 56.3757 4.96647Z" fill="white"/>
</g>
<g id="g22">
<path id="path24" d="M63.3152 1.28535H59.207V4.07818H62.9106V5.1402H59.207V7.93303H63.3152V9.01526H58.0439V0.203125H63.3152V1.28535Z" fill="white"/>
</g>
<g id="g26">
<path id="path28" d="M68.2102 9.01526H67.0472V1.28535H64.5273V0.203125H70.732V1.28535H68.2102V9.01526Z" fill="white"/>
</g>
<g id="g30">
<path id="path32" d="M75.2227 9.01526V0.203125H76.3838V9.01526H75.2227Z" fill="white"/>
</g>
<g id="g34">
<path id="path36" d="M81.532 9.01526H80.3784V1.28535H77.8491V0.203125H84.0613V1.28535H81.532V9.01526Z" fill="white"/>
</g>
<g id="g38">
<path id="path40" d="M95.8084 7.88057C94.9182 8.77171 93.8154 9.21636 92.5 9.21636C91.177 9.21636 90.0742 8.77171 89.184 7.88057C88.2958 6.99128 87.8535 5.89987 87.8535 4.60818C87.8535 3.31649 88.2958 2.22508 89.184 1.33578C90.0742 0.444649 91.177 0 92.5 0C93.8079 0 94.9107 0.444649 95.8009 1.34313C96.6966 2.23978 97.1389 3.32384 97.1389 4.60818C97.1389 5.89987 96.6966 6.99128 95.8084 7.88057ZM90.0441 7.14194C90.714 7.80157 91.5289 8.1323 92.5 8.1323C93.4635 8.1323 94.2859 7.80157 94.9483 7.14194C95.6164 6.48232 95.9552 5.63528 95.9552 4.60818C95.9552 3.58108 95.6164 2.73404 94.9483 2.07442C94.2859 1.41479 93.4635 1.08406 92.5 1.08406C91.5289 1.08406 90.714 1.41479 90.0441 2.07442C89.376 2.73404 89.0372 3.58108 89.0372 4.60818C89.0372 5.63528 89.376 6.48232 90.0441 7.14194Z" fill="white"/>
</g>
<g id="g42">
<path id="path44" d="M98.7681 9.01526V0.203125H100.18L104.568 7.0566H104.619L104.568 5.36252V0.203125H105.729V9.01526H104.517L99.9217 1.8237H99.8709L99.9217 3.52513V9.01526H98.7681Z" fill="white"/>
</g>
<path id="path46" d="M87.5663 21.8833C84.0302 21.8833 81.1414 24.5108 81.1414 28.136C81.1414 31.7317 84.0302 34.3868 87.5663 34.3868C91.1099 34.3868 93.9987 31.7317 93.9987 28.136C93.9987 24.5108 91.1099 21.8833 87.5663 21.8833ZM87.5663 31.9247C85.626 31.9247 83.9568 30.361 83.9568 28.136C83.9568 25.8815 85.626 24.3454 87.5663 24.3454C89.5065 24.3454 91.1833 25.8815 91.1833 28.136C91.1833 30.361 89.5065 31.9247 87.5663 31.9247ZM73.5479 21.8833C70.0043 21.8833 67.1231 24.5108 67.1231 28.136C67.1231 31.7317 70.0043 34.3868 73.5479 34.3868C77.0897 34.3868 79.9728 31.7317 79.9728 28.136C79.9728 24.5108 77.0897 21.8833 73.5479 21.8833ZM73.5479 31.9247C71.6058 31.9247 69.9309 30.361 69.9309 28.136C69.9309 25.8815 71.6058 24.3454 73.5479 24.3454C75.4882 24.3454 77.1574 25.8815 77.1574 28.136C77.1574 30.361 75.4882 31.9247 73.5479 31.9247ZM56.8666 23.7997V26.4566H63.3649C63.1748 27.9412 62.6667 29.0326 61.8876 29.7933C60.9391 30.712 59.4618 31.7317 56.8666 31.7317C52.8676 31.7317 49.7361 28.5806 49.7361 24.6762C49.7361 20.7717 52.8676 17.6206 56.8666 17.6206C59.0289 17.6206 60.6022 18.4456 61.7634 19.5149L63.681 17.6426C62.057 16.1286 59.8965 14.9655 56.8666 14.9655C51.3827 14.9655 46.7739 19.322 46.7739 24.6762C46.7739 30.0303 51.3827 34.3868 56.8666 34.3868C59.8306 34.3868 62.0569 33.4387 63.8071 31.6601C65.6006 29.909 66.1595 27.4469 66.1595 25.4589C66.1595 24.8415 66.1068 24.2738 66.0127 23.7997H56.8666ZM125.078 25.8594C124.55 24.4612 122.918 21.8833 119.595 21.8833C116.301 21.8833 113.559 24.4171 113.559 28.136C113.559 31.638 116.273 34.3868 119.911 34.3868C122.852 34.3868 124.55 32.6357 125.248 31.616L123.065 30.1957C122.337 31.2356 121.345 31.9247 119.911 31.9247C118.486 31.9247 117.464 31.2871 116.809 30.0303L125.374 26.5705L125.078 25.8594ZM116.346 27.9412C116.273 25.5305 118.264 24.2958 119.691 24.2958C120.808 24.2958 121.757 24.8415 122.073 25.6224L116.346 27.9412ZM109.385 34.0064H112.201V15.6325H109.385V34.0064ZM104.775 23.2761H104.68C104.048 22.5448 102.842 21.8833 101.314 21.8833C98.1069 21.8833 95.1749 24.6321 95.1749 28.1562C95.1749 31.6601 98.1069 34.3868 101.314 34.3868C102.842 34.3868 104.048 33.7198 104.68 32.9665H104.775V33.8631C104.775 36.2536 103.467 37.5379 101.357 37.5379C99.6369 37.5379 98.5699 36.3252 98.1295 35.3055L95.6811 36.3032C96.3868 37.9605 98.2556 40 101.357 40C104.658 40 107.443 38.1038 107.443 33.4901V22.2637H104.775V23.2761ZM101.555 31.9247C99.6143 31.9247 97.9902 30.339 97.9902 28.1562C97.9902 25.9531 99.6143 24.3454 101.555 24.3454C103.467 24.3454 104.974 25.9531 104.974 28.1562C104.974 30.339 103.467 31.9247 101.555 31.9247ZM138.259 15.6325H131.526V34.0064H134.334V27.0445H138.259C141.378 27.0445 144.436 24.8415 144.436 21.3376C144.436 17.8355 141.37 15.6325 138.259 15.6325ZM138.333 24.4887H134.334V18.1883H138.333C140.429 18.1883 141.626 19.8879 141.626 21.3376C141.626 22.7597 140.429 24.4887 138.333 24.4887ZM155.69 21.8484C153.661 21.8484 151.551 22.723 150.684 24.6614L153.175 25.6812C153.712 24.6615 154.698 24.3307 155.741 24.3307C157.197 24.3307 158.674 25.1851 158.697 26.6936V26.8865C158.189 26.5999 157.101 26.1755 155.763 26.1755C153.079 26.1755 150.345 27.6178 150.345 30.3096C150.345 32.7717 152.543 34.3574 155.014 34.3574C156.904 34.3574 157.946 33.525 158.601 32.5567H158.697V33.977H161.409V26.9288C161.409 23.6711 158.917 21.8484 155.69 21.8484ZM155.351 31.9173C154.433 31.9173 153.153 31.4727 153.153 30.361C153.153 28.9389 154.749 28.3932 156.13 28.3932C157.366 28.3932 157.946 28.6596 158.697 29.0106C158.477 30.712 156.977 31.9173 155.351 31.9173ZM171.289 22.2508L168.061 30.2159H167.965L164.629 22.2508H161.601L166.614 33.3817L163.754 39.5756H166.688L174.413 22.2508H171.289ZM145.979 34.0064H148.794V15.6325H145.979V34.0064Z" fill="white"/>
<g id="g48">
<path id="path64" d="M0.698189 0.989967C0.255939 1.44196 0 2.14568 0 3.05703V35.5642C0 36.4755 0.255939 37.1792 0.698189 37.6312L0.807341 37.7305L19.4646 19.5219V19.092L0.807341 0.883399L0.698189 0.989967Z" fill="url(#paint0_linear_45_1238)"/>
</g>
<g id="g66">
<path id="path78" d="M25.677 25.5938L19.4648 19.5212V19.0912L25.6846 13.0186L25.8238 13.0976L33.1896 17.1895C35.2917 18.3507 35.2917 20.2616 33.1896 21.4302L25.8238 25.5147L25.677 25.5938Z" fill="url(#paint1_linear_45_1238)"/>
</g>
<g id="g80">
<path id="path88" d="M25.8237 25.5165L19.4647 19.308L0.698242 37.6323C1.39643 38.3489 2.53499 38.4352 3.82975 37.7186L25.8237 25.5165Z" fill="url(#paint2_linear_45_1238)"/>
</g>
<g id="g90">
<path id="path104" d="M25.8237 13.1L3.82975 0.897926C2.53499 0.188693 1.39643 0.275048 0.698242 0.991631L19.4647 19.3086L25.8237 13.1Z" fill="url(#paint3_linear_45_1238)"/>
</g>
</g>
<defs>
<linearGradient id="paint0_linear_45_1238" x1="17.8081" y1="35.9027" x2="-6.85352" y2="10.6435" gradientUnits="userSpaceOnUse">
<stop stop-color="#00A0FF"/>
<stop offset="0.0066" stop-color="#00A1FF"/>
<stop offset="0.2601" stop-color="#00BEFF"/>
<stop offset="0.5122" stop-color="#00D2FF"/>
<stop offset="0.7604" stop-color="#00DFFF"/>
<stop offset="1" stop-color="#00E3FF"/>
</linearGradient>
<linearGradient id="paint1_linear_45_1238" x1="35.9269" y1="19.3041" x2="-0.502268" y2="19.3041" gradientUnits="userSpaceOnUse">
<stop stop-color="#FFE000"/>
<stop offset="0.4087" stop-color="#FFBD00"/>
<stop offset="0.7754" stop-color="#FFA500"/>
<stop offset="1" stop-color="#FF9C00"/>
</linearGradient>
<linearGradient id="paint2_linear_45_1238" x1="22.3659" y1="15.9329" x2="-11.0773" y2="-18.3206" gradientUnits="userSpaceOnUse">
<stop stop-color="#FF3A44"/>
<stop offset="1" stop-color="#C31162"/>
</linearGradient>
<linearGradient id="paint3_linear_45_1238" x1="-4.02566" y1="48.4479" x2="10.9082" y2="33.1523" gradientUnits="userSpaceOnUse">
<stop stop-color="#32A071"/>
<stop offset="0.0685" stop-color="#2DA771"/>
<stop offset="0.4762" stop-color="#15CF74"/>
<stop offset="0.8009" stop-color="#06E775"/>
<stop offset="1" stop-color="#00F076"/>
</linearGradient>
</defs>
</svg>
