<svg width="92" height="30" viewBox="0 0 92 30" fill="none" xmlns="http://www.w3.org/2000/svg">
<g id="&#208;&#187;&#208;&#190;&#208;&#179;&#208;&#190;">
<g id="Group">
<g id="Group_2">
<g id="Group_3">
<path id="Vector" d="M56.0703 8.66633H64.7986H70.0243L72.4253 5.5625H56.1833H51.4096L49.4605 8.44264L46.5511 12.7489L42.7095 18.3134L40.139 14.5385L39.2069 13.1683L38.9244 12.7489L37.9075 11.2668V11.2389L35.9867 8.44264L35.4218 7.63172L34.6591 6.48526L34.0659 5.5625H34.0377H29.2357L33.1338 11.0152L35.6477 14.5664L33.0208 18.3134L29.2639 12.7489L26.3262 8.44264L24.3772 5.5625H19.5752L33.049 24.4372L37.8792 17.6703L42.3423 23.9338L42.7095 24.4372H64.3184L61.748 21.3054H44.9692L48.6414 16.1044H65.0529V12.9726H50.9011L53.9518 8.66633H56.0703Z" fill="#DE7455"/>
<path id="Vector_2" d="M46.522 5.5625H41.7483L40.3359 7.65969L42.6239 11.0431L46.522 5.5625Z" fill="#DE7455"/>
</g>
</g>
<g id="Group_4">
<g id="Group_5">
<g id="Group_6">
<path id="Vector_3" d="M76.9717 21.6405C79.3444 20.2703 80.8415 17.7537 80.8415 15.0134C80.8415 12.2731 79.3444 9.72848 76.9717 8.38629L79.5704 5.75781C82.6493 7.88296 84.4854 11.2944 84.4854 15.0134C84.4854 18.7324 82.6493 22.1718 79.5704 24.269L76.9717 21.6405Z" fill="#26263A"/>
<path id="Vector_4" d="M82.3691 26.8154C86.126 24.0191 88.3293 19.657 88.3293 14.9872C88.3293 10.3455 86.0977 5.95535 82.3691 3.1591L84.9396 0.558594C87.0299 2.20838 88.753 4.2776 89.9676 6.62645C91.3234 9.22696 92.0014 12.0512 92.0014 14.9872C92.0014 17.9233 91.3234 20.7475 89.9676 23.348C88.753 25.6969 87.0299 27.7661 84.9396 29.4159L82.3691 26.8154Z" fill="#26263A"/>
</g>
<g id="Group_7">
<path id="Vector_5" d="M15.0293 8.38629C12.6566 9.75645 11.1595 12.2731 11.1595 15.0134C11.1595 17.7537 12.6566 20.2983 15.0293 21.6405L12.4306 24.269C9.35168 22.1438 7.51562 18.7324 7.51562 15.0134C7.51562 11.2944 9.35168 7.855 12.4306 5.75781L15.0293 8.38629Z" fill="#26263A"/>
<path id="Vector_6" d="M9.603 3.18645C5.84615 5.9827 3.64289 10.3448 3.64289 15.0146C3.64289 19.6563 5.8744 24.0465 9.603 26.8427L7.03253 29.4432C4.94225 27.7934 3.21918 25.7242 2.00456 23.3754C0.676952 20.7469 -0.000976562 17.9506 -0.000976562 15.0146C-0.000976562 12.0785 0.676951 9.25431 2.03281 6.6538C3.24743 4.30495 4.9705 2.23572 7.06077 0.585938L9.603 3.18645Z" fill="#26263A"/>
</g>
</g>
</g>
</g>
</g>
</svg>
