<svg width="155" height="41" viewBox="0 0 155 41" fill="none" xmlns="http://www.w3.org/2000/svg">
  <path d="M24.8594 19.0868C24.8187 14.6713 28.5675 12.5231 28.739 12.4231C26.6158 9.40499 23.325 8.99262 22.1686 8.95974C19.4047 8.67615 16.7237 10.5722 15.3158 10.5722C13.8798 10.5722 11.7116 8.98714 9.37492 9.03372C6.36794 9.07893 3.55488 10.7764 2.01205 13.4122C-1.17197 18.7867 1.2027 26.6848 4.25323 31.029C5.7792 33.1567 7.5623 35.5322 9.89622 35.4487C12.1796 35.3569 13.0325 34.0293 15.7879 34.0293C18.5181 34.0293 19.319 35.4487 21.6993 35.3952C24.1498 35.3569 25.6927 33.258 27.1652 31.1112C28.9287 28.6727 29.6368 26.271 29.665 26.1477C29.6073 26.1286 24.9058 24.3791 24.8594 19.0868Z" fill="white"/>
  <path d="M20.363 6.10192C21.5911 4.60452 22.4314 2.56733 22.1981 0.5C20.4206 0.57672 18.1977 1.69875 16.9176 3.16328C15.7851 4.45382 14.7734 6.56909 15.0348 8.55833C17.0315 8.70355 19.0815 7.57604 20.363 6.10192Z" fill="white"/>
  <path d="M57.9028 35.1421H54.7118L52.9638 29.7868H46.888L45.2229 35.1421H42.1162L48.1358 16.9102H51.8537L57.9028 35.1421ZM52.4369 27.54L50.8561 22.7792C50.6889 22.2929 50.3755 21.1476 49.9133 19.3446H49.8571C49.673 20.1201 49.3765 21.2654 48.969 22.7792L47.4163 27.54H52.4369Z" fill="white"/>
  <path d="M73.3827 28.408C73.3827 30.6439 72.7631 32.4112 71.5237 33.7086C70.4137 34.8635 69.0353 35.4403 67.3899 35.4403C65.6138 35.4403 64.3379 34.8183 63.5609 33.5743H63.5047V40.4997H60.509V26.3243C60.509 24.9187 60.471 23.4761 60.3979 21.9965H63.0326L63.1998 24.0802H63.256C64.255 22.5102 65.7712 21.7266 67.8058 21.7266C69.3964 21.7266 70.7242 22.339 71.7865 23.5651C72.8516 24.7926 73.3827 26.4065 73.3827 28.408ZM70.3308 28.5149C70.3308 27.2353 70.0357 26.1804 69.4428 25.3502C68.795 24.4844 67.9252 24.0515 66.8348 24.0515C66.0957 24.0515 65.4241 24.2926 64.8241 24.768C64.2227 25.2475 63.8293 25.8735 63.6452 26.649C63.5525 27.0106 63.5061 27.3066 63.5061 27.5395V29.7315C63.5061 30.6877 63.8068 31.4947 64.4082 32.1536C65.0096 32.8126 65.7908 33.1414 66.7519 33.1414C67.8802 33.1414 68.7585 32.7167 69.3865 31.87C70.016 31.022 70.3308 29.9041 70.3308 28.5149Z" fill="white"/>
  <path d="M88.8906 28.408C88.8906 30.6439 88.2709 32.4112 87.0302 33.7086C85.9216 34.8635 84.5431 35.4403 82.8977 35.4403C81.1217 35.4403 79.8458 34.8183 79.0702 33.5743H79.014V40.4997H76.0182V26.3243C76.0182 24.9187 75.9803 23.4761 75.9072 21.9965H78.5418L78.7091 24.0802H78.7653C79.7629 22.5102 81.279 21.7266 83.3151 21.7266C84.9043 21.7266 86.2321 22.339 87.2972 23.5651C88.3581 24.7926 88.8906 26.4065 88.8906 28.408ZM85.8387 28.5149C85.8387 27.2353 85.5422 26.1804 84.9492 25.3502C84.3015 24.4844 83.4345 24.0515 82.3427 24.0515C81.6022 24.0515 80.932 24.2926 80.3306 24.768C79.7292 25.2475 79.3371 25.8735 79.1531 26.649C79.0617 27.0106 79.014 27.3066 79.014 27.5395V29.7315C79.014 30.6877 79.3147 31.4947 79.9132 32.1536C80.5146 32.8112 81.2959 33.1414 82.2598 33.1414C83.3881 33.1414 84.2663 32.7167 84.8944 31.87C85.5239 31.022 85.8387 29.9041 85.8387 28.5149Z" fill="white"/>
  <path d="M106.23 30.0308C106.23 31.5816 105.678 32.8434 104.569 33.8175C103.351 34.882 101.655 35.4135 99.4757 35.4135C97.4635 35.4135 95.8504 35.0354 94.6294 34.2778L95.3235 31.8433C96.6387 32.6187 98.0818 33.0078 99.6541 33.0078C100.782 33.0078 101.661 32.7585 102.292 32.2625C102.92 31.7666 103.233 31.1008 103.233 30.2705C103.233 29.5307 102.974 28.9074 102.456 28.4019C101.94 27.8963 101.079 27.4264 99.8761 26.9921C96.6022 25.8016 94.9666 24.0576 94.9666 21.7642C94.9666 20.2654 95.5399 19.0366 96.6879 18.0803C97.8317 17.1227 99.3576 16.6445 101.266 16.6445C102.967 16.6445 104.381 16.9336 105.509 17.5104L104.76 19.8914C103.707 19.3325 102.515 19.053 101.182 19.053C100.128 19.053 99.3043 19.3064 98.7141 19.8106C98.2153 20.2613 97.9652 20.8107 97.9652 21.4614C97.9652 22.1821 98.2504 22.778 98.8237 23.2466C99.3225 23.6795 100.229 24.148 101.544 24.6535C103.153 25.2851 104.335 26.0235 105.095 26.8702C105.852 27.7141 106.23 28.7704 106.23 30.0308Z" fill="white"/>
  <path d="M116.135 24.1903H112.833V30.5731C112.833 32.1966 113.415 33.0076 114.581 33.0076C115.117 33.0076 115.561 32.9624 115.912 32.872L115.995 35.09C115.405 35.3051 114.628 35.4134 113.665 35.4134C112.482 35.4134 111.557 35.0613 110.89 34.3585C110.225 33.6543 109.891 32.4733 109.891 30.8143V24.1876H107.924V21.9956H109.891V19.5885L112.833 18.7227V21.9956H116.135V24.1903Z" fill="white"/>
  <path d="M131.033 28.4601C131.033 30.4809 130.44 32.1399 129.257 33.4373C128.016 34.7731 126.369 35.4389 124.316 35.4389C122.338 35.4389 120.763 34.7991 119.588 33.5195C118.414 32.2399 117.826 30.6247 117.826 28.6779C117.826 26.6407 118.43 24.9721 119.643 23.6747C120.853 22.3759 122.486 21.7266 124.538 21.7266C126.517 21.7266 128.109 22.3664 129.31 23.6473C130.46 24.8899 131.033 26.4942 131.033 28.4601ZM127.925 28.5546C127.925 27.3422 127.659 26.3024 127.121 25.4351C126.493 24.3857 125.595 23.8624 124.432 23.8624C123.227 23.8624 122.313 24.3871 121.685 25.4351C121.146 26.3037 120.881 27.36 120.881 28.6094C120.881 29.8219 121.146 30.8617 121.685 31.7276C122.332 32.777 123.237 33.3003 124.405 33.3003C125.549 33.3003 126.447 32.766 127.094 31.7002C127.647 30.8165 127.925 29.7657 127.925 28.5546Z" fill="white"/>
  <path d="M140.772 24.5652C140.476 24.5118 140.159 24.4844 139.828 24.4844C138.774 24.4844 137.959 24.8721 137.386 25.6489C136.887 26.3339 136.637 27.1997 136.637 28.245V35.143H133.642L133.671 26.1366C133.671 24.6214 133.633 23.2418 133.558 21.9978H136.167L136.277 24.5131H136.36C136.676 23.6487 137.175 22.9527 137.858 22.4307C138.525 21.9608 139.246 21.7266 140.023 21.7266C140.3 21.7266 140.55 21.7457 140.772 21.78V24.5652Z" fill="white"/>
  <path d="M154.169 27.9489C154.169 28.4723 154.134 28.9134 154.059 29.2737H145.072C145.107 30.5725 145.541 31.5657 146.376 32.2507C147.133 32.8631 148.113 33.17 149.316 33.17C150.646 33.17 151.86 32.9631 152.952 32.548L153.421 34.5756C152.146 35.1182 150.639 35.388 148.901 35.388C146.81 35.388 145.169 34.788 143.975 33.5892C142.783 32.3905 142.186 30.7807 142.186 28.7614C142.186 26.779 142.741 25.1281 143.853 23.8116C145.016 22.4059 146.588 21.7031 148.567 21.7031C150.51 21.7031 151.981 22.4059 152.98 23.8116C153.771 24.9281 154.169 26.3091 154.169 27.9489ZM151.312 27.1913C151.332 26.3255 151.137 25.5775 150.731 24.9459C150.212 24.1335 149.415 23.728 148.343 23.728C147.364 23.728 146.567 24.1239 145.959 24.9185C145.46 25.5501 145.163 26.3077 145.072 27.19H151.312V27.1913Z" fill="white"/>
  <path d="M51.4472 5.69659C51.4472 7.30908 50.9511 8.5229 49.9605 9.33805C49.043 10.0902 47.739 10.4669 46.0501 10.4669C45.2126 10.4669 44.496 10.4313 43.896 10.3601V1.5496C44.6787 1.4263 45.5217 1.36328 46.4323 1.36328C48.0411 1.36328 49.2538 1.70441 50.0715 2.38667C50.9877 3.15798 51.4472 4.26083 51.4472 5.69659ZM49.8945 5.73632C49.8945 4.69101 49.6107 3.88956 49.043 3.3306C48.4753 2.77301 47.6463 2.49353 46.5545 2.49353C46.0908 2.49353 45.696 2.52367 45.3686 2.58669V9.28462C45.5498 9.31202 45.8814 9.32435 46.3634 9.32435C47.4903 9.32435 48.3601 9.01884 48.9727 8.40782C49.5854 7.7968 49.8945 6.9063 49.8945 5.73632Z" fill="white"/>
  <path d="M59.6808 7.10405C59.6808 8.0973 59.39 8.91108 58.8082 9.5495C58.1984 10.2057 57.3905 10.5332 56.3816 10.5332C55.4092 10.5332 54.635 10.2194 54.0575 9.58923C53.4814 8.9604 53.1934 8.16717 53.1934 7.21091C53.1934 6.21081 53.4898 5.39018 54.0856 4.75313C54.6814 4.11608 55.4823 3.79688 56.4912 3.79688C57.4635 3.79688 58.2448 4.1106 58.8364 4.73943C59.3984 5.35045 59.6808 6.13957 59.6808 7.10405ZM58.1535 7.15063C58.1535 6.55468 58.0214 6.04367 57.7586 5.6176C57.4495 5.10248 57.0097 4.84492 56.4378 4.84492C55.8462 4.84492 55.3966 5.10248 55.0875 5.6176C54.8233 6.04367 54.6926 6.5629 54.6926 7.17666C54.6926 7.77261 54.8247 8.28362 55.0875 8.70969C55.4064 9.22481 55.8505 9.48237 56.4237 9.48237C56.9858 9.48237 57.427 9.2207 57.7446 8.69599C58.0172 8.2617 58.1535 7.74658 58.1535 7.15063Z" fill="white"/>
  <path d="M70.7191 3.92969L68.6465 10.3879H67.2976L66.4391 7.58347C66.2213 6.8834 66.0442 6.18745 65.9065 5.49697H65.8798C65.752 6.20663 65.5749 6.90121 65.3473 7.58347L64.4354 10.3879H63.071L61.1221 3.92969H62.6354L63.3843 6.99986C63.5656 7.72595 63.7145 8.4178 63.834 9.07266H63.8607C63.9703 8.53288 64.1515 7.84514 64.4073 7.01356L65.3473 3.93106H66.5473L67.4479 6.94779C67.6657 7.68348 67.8428 8.39177 67.9791 9.07403H68.0198C68.1196 8.40958 68.2699 7.70129 68.4695 6.94779L69.2732 3.93106H70.7191V3.92969Z" fill="white"/>
  <path d="M78.3533 10.3868H76.8808V6.68778C76.8808 5.54794 76.4367 4.97802 75.5459 4.97802C75.1089 4.97802 74.7562 5.1342 74.4822 5.44793C74.211 5.76166 74.0733 6.13156 74.0733 6.55489V10.3854H72.6008V5.77399C72.6008 5.20681 72.5825 4.59168 72.5474 3.92586H73.8415L73.9103 4.93555H73.9511C74.1225 4.62182 74.3782 4.36289 74.7141 4.15602C75.1131 3.9149 75.5599 3.79297 76.0489 3.79297C76.6672 3.79297 77.1815 3.98751 77.5903 4.37796C78.099 4.85609 78.3533 5.56986 78.3533 6.5179V10.3868Z" fill="white"/>
  <path d="M82.4145 10.3863H80.9434V0.964844H82.4145V10.3863Z" fill="white"/>
  <path d="M91.0822 7.10405C91.0822 8.0973 90.7913 8.91108 90.2096 9.5495C89.5998 10.2057 88.7904 10.5332 87.783 10.5332C86.8092 10.5332 86.035 10.2194 85.4589 9.58923C84.8828 8.9604 84.5947 8.16717 84.5947 7.21091C84.5947 6.21081 84.8912 5.39018 85.487 4.75313C86.0828 4.11608 86.8837 3.79688 87.8912 3.79688C88.8649 3.79688 89.6448 4.1106 90.2377 4.73943C90.7998 5.35045 91.0822 6.13957 91.0822 7.10405ZM89.5534 7.15063C89.5534 6.55468 89.4213 6.04367 89.1586 5.6176C88.8509 5.10248 88.4096 4.84492 87.8392 4.84492C87.2462 4.84492 86.7966 5.10248 86.4888 5.6176C86.2247 6.04367 86.094 6.5629 86.094 7.17666C86.094 7.77261 86.2261 8.28362 86.4888 8.70969C86.8078 9.22481 87.2518 9.48237 87.8251 9.48237C88.3872 9.48237 88.827 9.2207 89.1445 8.69599C89.4185 8.2617 89.5534 7.74658 89.5534 7.15063Z" fill="white"/>
  <path d="M98.2098 10.3866H96.8876L96.778 9.64266H96.7372C96.2848 10.2359 95.6398 10.5332 94.8024 10.5332C94.1771 10.5332 93.6713 10.3372 93.2905 9.94817C92.9448 9.59471 92.772 9.15494 92.772 8.63297C92.772 7.84385 93.1092 7.24242 93.7879 6.82594C94.4651 6.40946 95.4178 6.20533 96.6445 6.21492V6.09436C96.6445 5.24359 96.1864 4.81889 95.2689 4.81889C94.6155 4.81889 94.0394 4.97918 93.542 5.29702L93.2427 4.35446C93.8581 3.98319 94.6183 3.79688 95.5148 3.79688C97.2459 3.79688 98.1143 4.68737 98.1143 6.46837V8.84669C98.1143 9.49196 98.1466 10.0057 98.2098 10.3866ZM96.681 8.16717V7.17118C95.0567 7.14378 94.2445 7.57807 94.2445 8.47268C94.2445 8.8097 94.3373 9.06178 94.527 9.23029C94.7167 9.3988 94.9583 9.48237 95.2464 9.48237C95.5696 9.48237 95.8717 9.38236 96.1471 9.18371C96.4239 8.98369 96.5939 8.73024 96.6571 8.41925C96.6726 8.34938 96.681 8.26444 96.681 8.16717Z" fill="white"/>
  <path d="M106.577 10.3863H105.27L105.201 9.34924H105.161C104.743 10.1384 104.032 10.5329 103.033 10.5329C102.235 10.5329 101.571 10.2274 101.044 9.61639C100.517 9.00537 100.254 8.21214 100.254 7.23807C100.254 6.19276 100.539 5.3461 101.112 4.69946C101.667 4.09666 102.348 3.79526 103.157 3.79526C104.046 3.79526 104.669 4.08707 105.023 4.67206H105.051V0.964844H106.525V8.64643C106.525 9.27526 106.542 9.85476 106.577 10.3863ZM105.051 7.66277V6.58595C105.051 6.39963 105.037 6.24893 105.01 6.13385C104.927 5.78861 104.749 5.49817 104.478 5.2639C104.204 5.02963 103.873 4.91181 103.493 4.91181C102.943 4.91181 102.513 5.12416 102.197 5.55023C101.884 5.9763 101.725 6.52019 101.725 7.18464C101.725 7.82306 101.875 8.34092 102.178 8.73959C102.496 9.16429 102.926 9.37664 103.465 9.37664C103.948 9.37664 104.334 9.19991 104.628 8.84508C104.912 8.51765 105.051 8.12309 105.051 7.66277Z" fill="white"/>
  <path d="M119.172 7.10405C119.172 8.0973 118.881 8.91108 118.299 9.5495C117.689 10.2057 116.883 10.5332 115.872 10.5332C114.901 10.5332 114.127 10.2194 113.548 9.58923C112.972 8.9604 112.684 8.16717 112.684 7.21091C112.684 6.21081 112.981 5.39018 113.576 4.75313C114.172 4.11608 114.973 3.79688 115.983 3.79688C116.954 3.79688 117.737 4.1106 118.327 4.73943C118.889 5.35045 119.172 6.13957 119.172 7.10405ZM117.646 7.15063C117.646 6.55468 117.513 6.04367 117.251 5.6176C116.94 5.10248 116.502 4.84492 115.929 4.84492C115.338 4.84492 114.889 5.10248 114.578 5.6176C114.314 6.04367 114.183 6.5629 114.183 7.17666C114.183 7.77261 114.315 8.28362 114.578 8.70969C114.897 9.22481 115.341 9.48237 115.914 9.48237C116.477 9.48237 116.919 9.2207 117.237 8.69599C117.508 8.2617 117.646 7.74658 117.646 7.15063Z" fill="white"/>
  <path d="M127.09 10.3868H125.619V6.68778C125.619 5.54794 125.175 4.97802 124.283 4.97802C123.846 4.97802 123.493 5.1342 123.22 5.44793C122.948 5.76166 122.812 6.13156 122.812 6.55489V10.3854H121.338V5.77399C121.338 5.20681 121.321 4.59168 121.286 3.92586H122.578L122.647 4.93555H122.688C122.861 4.62182 123.117 4.36289 123.451 4.15602C123.851 3.9149 124.297 3.79297 124.787 3.79297C125.404 3.79297 125.918 3.98751 126.327 4.37796C126.837 4.85609 127.09 5.56986 127.09 6.5179V10.3868Z" fill="white"/>
  <path d="M137 5.00414H135.379V8.14144C135.379 8.93878 135.667 9.33745 136.237 9.33745C136.502 9.33745 136.721 9.31553 136.894 9.27032L136.932 10.3595C136.641 10.4663 136.259 10.5198 135.788 10.5198C135.206 10.5198 134.754 10.3471 134.426 10.0019C134.097 9.65666 133.934 9.07578 133.934 8.26063V5.00414H132.966V3.92869H133.934V2.74501L135.377 2.32031V3.92732H136.999V5.00414H137Z" fill="white"/>
  <path d="M144.795 10.3863H143.321V6.71473C143.321 5.55708 142.877 4.97757 141.988 4.97757C141.305 4.97757 140.838 5.31322 140.583 5.98452C140.539 6.12563 140.514 6.29825 140.514 6.50101V10.385H139.042V0.964844H140.514V4.85701H140.542C141.005 4.14872 141.67 3.79526 142.531 3.79526C143.141 3.79526 143.646 3.9898 144.046 4.38025C144.545 4.8666 144.795 5.58996 144.795 6.54622V10.3863Z" fill="white"/>
  <path d="M152.837 6.85258C152.837 7.11014 152.817 7.3266 152.782 7.50333H148.366C148.386 8.14175 148.596 8.6281 149.005 8.96512C149.379 9.26652 149.861 9.41722 150.451 9.41722C151.105 9.41722 151.7 9.31584 152.237 9.11171L152.468 10.1091C151.839 10.3748 151.1 10.5077 150.245 10.5077C149.219 10.5077 148.411 10.2132 147.826 9.62409C147.239 9.03499 146.948 8.2445 146.948 7.25262C146.948 6.27855 147.219 5.46751 147.766 4.82087C148.337 4.1304 149.108 3.78516 150.082 3.78516C151.034 3.78516 151.758 4.1304 152.247 4.82087C152.642 5.36887 152.837 6.04702 152.837 6.85258ZM151.432 6.48131C151.443 6.05524 151.346 5.68808 151.147 5.37846C150.891 4.9798 150.502 4.77978 149.975 4.77978C149.494 4.77978 149.102 4.97431 148.803 5.36476C148.559 5.67575 148.414 6.04702 148.366 6.48131H151.432Z" fill="white"/>
</svg>