<svg width="255" height="28" viewBox="0 0 255 28" fill="none" xmlns="http://www.w3.org/2000/svg">
<rect width="255" height="28" fill="#F5F5F5"/>
<g clip-path="url(#clip0_47_2127)">
<rect width="1920" height="7587" transform="translate(-405 -22)" fill="#EAE7E2"/>
<path d="M-405 -22H1515V923C1515 945.091 1497.09 963 1475 963H-365C-387.091 963 -405 945.091 -405 923V-22Z" fill="#FE6130"/>
<mask id="path-2-inside-1_47_2127" fill="white">
<path d="M-405 -22H1515V50H-405V-22Z"/>
</mask>
<path d="M-405 -22H1515V50H-405V-22Z" fill="#FAF7F1"/>
<path d="M1515 49.5H-405V50.5H1515V49.5Z" fill="#EAE7E2" mask="url(#path-2-inside-1_47_2127)"/>
<path d="M112.48 18.418H111.459L114.364 8.23684H117.766L114.233 19.7911H110.072L106.696 9.94666H108.005L104.629 19.7911H100.494L96.9351 8.23684H100.363L103.268 18.418L102.274 18.3921L105.676 8.21094H109.078L112.48 18.418Z" fill="#26263A"/>
<path d="M125.066 20.0244C123.679 20.0244 122.476 19.7654 121.429 19.2731C120.382 18.7809 119.571 18.0815 118.995 17.1747C118.419 16.268 118.131 15.2318 118.131 14.0142C118.131 12.7966 118.419 11.7603 118.995 10.8536C119.571 9.94688 120.382 9.24741 121.429 8.75519C122.476 8.26297 123.679 8.00391 125.066 8.00391C126.453 8.00391 127.657 8.26297 128.704 8.75519C129.751 9.24741 130.562 9.94688 131.138 10.8536C131.714 11.7603 132.001 12.7966 132.001 14.0142C132.001 15.2318 131.714 16.268 131.138 17.1747C130.562 18.0815 129.751 18.7809 128.704 19.2731C127.657 19.7654 126.453 20.0244 125.066 20.0244ZM125.066 17.1747C125.825 17.1747 126.48 17.0452 127.029 16.7861C127.579 16.5271 127.997 16.1644 128.285 15.6981C128.573 15.2318 128.73 14.6618 128.73 14.0142C128.73 13.3665 128.573 12.7966 128.285 12.3303C127.997 11.8639 127.579 11.5013 127.029 11.2422C126.48 10.9831 125.825 10.8536 125.066 10.8536C124.307 10.8536 123.679 10.9831 123.13 11.2422C122.58 11.5013 122.162 11.8639 121.847 12.3303C121.56 12.7966 121.403 13.3665 121.403 14.0142C121.403 14.6618 121.56 15.2318 121.847 15.6981C122.135 16.1644 122.58 16.5271 123.13 16.7861C123.653 17.0452 124.307 17.1747 125.066 17.1747Z" fill="#26263A"/>
<path d="M135.876 13.29H140.116C140.639 13.29 141.032 13.1605 141.319 12.9273C141.607 12.6942 141.764 12.3574 141.764 11.9429C141.764 11.5025 141.607 11.1916 141.319 10.9584C141.032 10.7253 140.613 10.6217 140.116 10.6217H135.405L136.844 9.09319V19.7925H133.625V8.23828H140.561C141.45 8.23828 142.235 8.39372 142.89 8.70459C143.544 9.01547 144.067 9.45588 144.434 9.99991C144.8 10.5439 144.983 11.1916 144.983 11.9429C144.983 12.6683 144.8 13.3159 144.434 13.8599C144.067 14.404 143.544 14.8444 142.89 15.1553C142.235 15.4661 141.45 15.6216 140.561 15.6216H135.85V13.29H135.876ZM137.629 14.3781H141.241L145.428 19.7925H141.686L137.629 14.3781Z" fill="#26263A"/>
<path d="M150.113 8.23828V18.3676L148.674 16.9428H157.388V19.7666H146.894V8.23828H150.113Z" fill="#26263A"/>
<path d="M164.583 8.23828C165.97 8.23828 167.173 8.47144 168.22 8.96366C169.267 9.42997 170.078 10.1035 170.654 10.9843C171.23 11.8652 171.518 12.8755 171.518 14.0154C171.518 15.1812 171.23 16.1915 170.654 17.0464C170.078 17.9272 169.267 18.5749 168.22 19.0671C167.173 19.5593 165.97 19.7925 164.583 19.7925H158.773V8.23828H164.583ZM161.966 18.4454L160.422 16.9428H164.818C165.525 16.9428 166.127 16.8133 166.624 16.5801C167.147 16.347 167.54 16.0102 167.802 15.5439C168.063 15.0775 168.22 14.5853 168.22 13.9895C168.22 13.3936 168.089 12.8496 167.802 12.4351C167.514 11.9947 167.121 11.6579 166.624 11.4248C166.101 11.1916 165.499 11.0621 164.818 11.0621H160.422L161.966 9.5595V18.4454Z" fill="#26263A"/>
<path d="M180.653 14.0154L179.894 18.6526L178.585 17.2019H187.509V19.7925H176.675L177.565 14.0154L176.675 8.23828H187.431V10.8289H178.585L179.894 9.37816L180.653 14.0154ZM186.986 12.8496V15.1553H178.454V12.8496H186.986Z" fill="#26263A"/>
<path d="M196.015 18.3417H194.654L199.155 8.23828H202.557L197.14 19.7925H193.476L188.059 8.23828H191.514L196.015 18.3417Z" fill="#26263A"/>
<path d="M207.266 14.0154L206.507 18.6526L205.199 17.2019H214.123V19.7925H203.289L204.178 14.0154L203.289 8.23828H214.044V10.8289H205.199L206.507 9.37816L207.266 14.0154ZM213.626 12.8496V15.1553H205.094V12.8496H213.626Z" fill="#26263A"/>
<path d="M226.789 17.5386L225.795 17.7459V8.23828H228.935V19.7925H224.879L218.153 10.2849L219.121 10.0776V19.7666H215.981V8.23828H220.168L226.789 17.5386Z" fill="#26263A"/>
<path d="M230.324 8.23828H242.441V11.0621H230.324V8.23828ZM234.773 9.63722H238.018V19.7925H234.773V9.63722Z" fill="#26263A"/>
<path d="M243.015 15.9841H246.286C246.338 16.295 246.495 16.5799 246.731 16.8131C246.992 17.0462 247.307 17.2276 247.725 17.3571C248.144 17.4866 248.641 17.5385 249.217 17.5385C250.002 17.5385 250.63 17.4348 251.075 17.2276C251.52 17.0203 251.755 16.7354 251.755 16.3468C251.755 16.0618 251.625 15.8286 251.363 15.6473C251.101 15.466 250.604 15.3623 249.871 15.2846L247.699 15.0774C246.103 14.9478 244.925 14.5592 244.192 13.9893C243.46 13.4194 243.093 12.6163 243.093 11.6318C243.093 10.8287 243.329 10.1552 243.8 9.61113C244.271 9.0671 244.925 8.62669 245.789 8.36763C246.652 8.08266 247.647 7.95312 248.772 7.95312C249.897 7.95312 250.892 8.10856 251.755 8.41944C252.619 8.73031 253.326 9.17072 253.823 9.74066C254.32 10.3106 254.608 10.9842 254.66 11.7354H251.389C251.337 11.4505 251.206 11.2173 250.996 11.0101C250.787 10.8028 250.473 10.6474 250.081 10.5438C249.688 10.4401 249.243 10.3883 248.694 10.3883C247.961 10.3883 247.385 10.4919 246.966 10.6733C246.548 10.8546 246.338 11.1396 246.338 11.5023C246.338 11.7614 246.469 11.9945 246.731 12.1499C246.992 12.3054 247.437 12.4349 248.118 12.4867L250.447 12.7199C251.546 12.8235 252.436 13.0049 253.116 13.238C253.77 13.4971 254.268 13.8339 254.556 14.2743C254.843 14.7147 255 15.2587 255 15.9323C255 16.7354 254.765 17.4607 254.268 18.0566C253.77 18.6524 253.09 19.1187 252.226 19.4555C251.337 19.7923 250.316 19.9477 249.138 19.9477C247.935 19.9477 246.862 19.7923 245.946 19.4555C245.03 19.1187 244.323 18.6524 243.8 18.0307C243.329 17.4866 243.041 16.7872 243.015 15.9841Z" fill="#26263A"/>
<path d="M51.9463 8.13341H60.0328H64.8742L67.0986 5.25781H52.051H47.6282L45.8225 7.92616L43.127 11.9157L39.5679 17.0711L37.1865 13.5737L36.3228 12.3043L36.0611 11.9157L35.119 10.5427V10.5168L33.3395 7.92616L32.8161 7.17488L32.1095 6.11272L31.5599 5.25781H31.5338H27.0849L30.6963 10.3095L33.0254 13.5996L30.5916 17.0711L27.111 11.9157L24.3894 7.92616L22.5836 5.25781H18.1348L30.6178 22.7446L35.0929 16.4752L39.2277 22.2783L39.5679 22.7446H59.5879L57.2064 19.8431H41.6615L45.0636 15.0245H60.2683V12.123H47.1572L49.9835 8.13341H51.9463Z" fill="#DE7455"/>
<path d="M43.0994 5.25781H38.6767L37.3682 7.20079L39.4879 10.3354L43.0994 5.25781Z" fill="#DE7455"/>
<path d="M71.3125 20.1523C73.5108 18.8829 74.8978 16.5513 74.8978 14.0125C74.8978 11.4737 73.5108 9.11619 71.3125 7.87269L73.7201 5.4375C76.5726 7.40638 78.2737 10.5669 78.2737 14.0125C78.2737 17.458 76.5726 20.6445 73.7201 22.5875L71.3125 20.1523Z" fill="#26263A"/>
<path d="M76.3125 24.9471C79.7931 22.3565 81.8344 18.3151 81.8344 13.9887C81.8344 9.6883 79.7669 5.62101 76.3125 3.03038L78.694 0.621094C80.6305 2.14957 82.2269 4.06663 83.3522 6.24276C84.6084 8.65205 85.2364 11.2686 85.2364 13.9887C85.2364 16.7089 84.6084 19.3254 83.3522 21.7347C82.2269 23.9109 80.6305 25.8279 78.694 27.3564L76.3125 24.9471Z" fill="#26263A"/>
<path d="M13.9241 7.8766C11.7258 9.14601 10.3388 11.4776 10.3388 14.0164C10.3388 16.5552 11.7258 18.9127 13.9241 20.1562L11.5165 22.5914C8.66393 20.6225 6.96289 17.4619 6.96289 14.0164C6.96289 10.5709 8.66393 7.38438 11.5165 5.44141L13.9241 7.8766Z" fill="#26263A"/>
<path d="M8.89777 3.05772C5.41717 5.64835 3.37592 9.68974 3.37592 14.0161C3.37592 18.3165 5.44334 22.3838 8.89777 24.9745L6.5163 27.3837C4.57973 25.8553 2.98337 23.9382 1.85806 21.7621C0.628078 19.3269 0 16.7363 0 14.0161C0 11.2959 0.628078 8.67939 1.88423 6.2701C3.00954 4.09398 4.6059 2.17691 6.54247 0.648438L8.89777 3.05772Z" fill="#26263A"/>
</g>
<defs>
<clipPath id="clip0_47_2127">
<rect width="1920" height="7587" fill="white" transform="translate(-405 -22)"/>
</clipPath>
</defs>
</svg>
