<svg width="158" height="42" viewBox="0 0 158 42" fill="none" xmlns="http://www.w3.org/2000/svg">
<g id="&#208;&#155;&#208;&#190;&#208;&#179;&#208;&#190;">
<g id="Group">
<g id="Group_2">
<path id="Vector" d="M96.0742 11.7213H110.877H119.739L123.811 7.23438H96.2658H88.17L84.8647 11.3979L79.9305 17.623L73.4156 25.667L69.0563 20.21L67.4755 18.2293L66.9964 17.623L65.2719 15.4806V15.4401L62.0144 11.3979L61.0563 10.2256L59.7629 8.56832L58.7569 7.23438H58.709H50.5653L57.1761 15.1168L61.4396 20.2504L56.9845 25.667L50.6132 17.623L45.6312 11.3979L42.3258 7.23438H34.1821L57.0324 34.5196L65.224 24.7373L72.7928 33.792L73.4156 34.5196H110.062L105.703 29.9922H77.2479L83.4754 22.4737H111.308V17.9463H87.3078L92.4814 11.7213H96.0742Z" fill="#DE7455"/>
<path id="Vector_2" d="M79.8821 7.23438H71.7863L69.3911 10.2661L73.2713 15.1572L79.8821 7.23438Z" fill="#DE7455"/>
</g>
</g>
<g id="Group_3">
<g id="Group_4">
<g id="Group_5">
<path id="Vector_3" d="M131.526 30.4795C135.55 28.4988 138.089 24.8608 138.089 20.8994C138.089 16.938 135.55 13.2595 131.526 11.3192L135.933 7.51953C141.155 10.5916 144.268 15.5232 144.268 20.8994C144.268 26.2756 141.155 31.2475 135.933 34.2792L131.526 30.4795Z" fill="#26263A"/>
<path id="Vector_4" d="M140.676 37.9567C147.048 33.9145 150.784 27.6086 150.784 20.858C150.784 14.1479 147 7.80154 140.676 3.75929L145.036 0C148.58 2.38493 151.503 5.37619 153.562 8.77168C155.862 12.531 157.012 16.6137 157.012 20.858C157.012 25.1024 155.862 29.1851 153.562 32.9443C151.503 36.3398 148.58 39.3311 145.036 41.716L140.676 37.9567Z" fill="#26263A"/>
</g>
<g id="Group_6">
<path id="Vector_5" d="M26.4774 11.3192C22.4534 13.2999 19.9145 16.938 19.9145 20.8994C19.9145 24.8608 22.4534 28.5392 26.4774 30.4795L22.0702 34.2792C16.8486 31.2071 13.7349 26.2756 13.7349 20.8994C13.7349 15.5232 16.8486 10.5512 22.0702 7.51953L26.4774 11.3192Z" fill="#26263A"/>
<path id="Vector_6" d="M17.2762 3.80226C10.9049 7.84451 7.1684 14.1504 7.1684 20.901C7.1684 27.6111 10.9528 33.9575 17.2762 37.9997L12.9169 41.759C9.37199 39.3741 6.44984 36.3828 4.38996 32.9873C2.13847 29.1876 0.98877 25.1453 0.98877 20.901C0.98877 16.6566 2.13847 12.5739 4.43786 8.81465C6.49774 5.41916 9.41989 2.4279 12.9648 0.0429688L17.2762 3.80226Z" fill="#26263A"/>
</g>
</g>
</g>
</g>
</svg>
